<svg width="239" height="231" viewBox="0 0 239 231" fill="none" xmlns="http://www.w3.org/2000/svg">
<g opacity="0.99">
<path fill-rule="evenodd" clip-rule="evenodd" d="M87.8589 103.772C89.4557 103.772 91.4282 104.133 92.5554 104.584C93.6825 105.035 95.4202 106.208 96.4535 107.201C97.4867 108.148 100.352 111.758 102.794 115.141C105.236 118.57 107.349 121.368 107.49 121.368C107.631 121.368 108.43 120.465 109.228 119.337C110.449 117.758 111.341 117.127 113.361 116.405C114.77 115.908 116.836 115.502 117.917 115.502C119.044 115.502 120.969 115.773 122.284 116.134C123.552 116.495 124.774 116.721 124.961 116.585C125.196 116.495 125.337 116.134 125.337 115.863C125.29 115.548 126.182 114.465 127.31 113.427C128.766 112.119 130.034 111.442 131.912 111.036C133.509 110.63 135.388 110.54 136.844 110.765C138.112 110.946 140.037 111.487 142.949 112.886L144.64 110.901C145.626 109.773 147.176 108.6 148.397 108.148C149.618 107.652 151.638 107.291 153.281 107.291C154.878 107.291 156.945 107.652 157.978 108.058C159.011 108.464 160.373 109.186 161.031 109.592C161.688 110.043 164.224 112.705 166.667 115.548C169.156 118.39 172.49 122.541 174.134 124.751C175.778 127.007 178.596 131.158 180.38 134C182.165 136.842 184.936 141.85 186.58 145.054C188.224 148.302 190.431 153.265 191.464 156.107C192.497 158.949 193.906 163.416 194.611 166.033C195.315 168.649 196.302 172.078 196.818 173.702C197.335 175.327 198.133 176.906 198.556 177.221C198.979 177.537 200.059 177.763 200.951 177.763C201.843 177.763 203.393 178.214 204.333 178.801C205.319 179.342 207.385 181.327 208.982 183.177C210.532 185.027 212.27 187.282 212.833 188.14C213.585 189.313 213.867 190.44 213.867 192.426C213.867 194.501 213.585 195.539 212.692 197.027C212.035 198.02 210.391 199.78 208.982 200.862C208.006 201.581 206.782 202.539 205.809 203.299C205.378 203.636 204.997 203.934 204.708 204.156C204.448 204.359 204.062 204.656 203.592 205.018L203.588 205.022L203.586 205.023C202.277 206.033 200.315 207.546 198.556 208.938L197.402 209.834C194.304 212.239 188.165 217.005 182.635 221.255C175.496 226.759 170.518 230.278 169.484 230.549C168.592 230.82 167.418 231 166.901 231C166.385 231 164.929 230.639 163.614 230.233C161.876 229.601 160.655 228.744 158.682 226.579C157.273 225 155.301 222.608 154.315 221.255C152.765 219.044 152.577 218.548 152.577 215.886C152.577 212.999 152.53 212.954 151.027 212.367C150.229 212.006 148.867 211.51 148.115 211.239C147.317 210.968 145.955 210.607 145.062 210.427C144.17 210.292 140.883 209.389 137.783 208.442C134.683 207.54 130.785 206.231 129.094 205.509C127.404 204.833 122.425 202.577 118.057 200.501C113.643 198.426 108.711 195.9 107.021 194.862C105.751 194.083 103.132 192.414 100.494 190.733L100.486 190.728L100.484 190.727C99.6116 190.171 98.7374 189.614 97.9094 189.087C94.5749 186.967 90.1602 183.673 88.0467 181.778C85.9333 179.928 83.5381 177.357 82.6927 176.139C81.8473 174.921 80.955 172.935 80.6732 171.672C80.3444 170.048 80.3444 168.875 80.7201 167.386C81.0489 166.258 81.8473 164.679 82.5048 163.822C83.2093 162.965 84.6182 161.882 85.6515 161.431C86.8726 160.934 88.7042 160.619 90.8177 160.619C93.2598 160.619 95.1385 160.934 98.0973 161.927C100.305 162.649 104.25 164.048 106.88 165.085C109.557 166.078 111.811 166.845 111.952 166.709C112.093 166.574 111.295 165.311 110.167 163.912C109.04 162.468 105.612 157.867 102.559 153.626C99.5062 149.43 95.9838 144.557 94.7158 142.798C93.4477 141.083 90.6298 137.203 88.4694 134.226C86.262 131.248 82.9745 126.691 81.1428 124.075C79.3581 121.458 77.6674 118.615 77.3856 117.758C77.1508 116.901 76.9629 115.502 76.9629 114.735C76.9629 113.923 77.1977 112.389 77.4326 111.352C77.7144 110.269 78.6067 108.6 79.4521 107.607C80.3444 106.614 81.9412 105.351 83.1154 104.81C84.5243 104.088 86.0272 103.772 87.8589 103.772ZM89.3617 119.112C88.3285 117.758 87.2013 115.908 86.9195 115.051C86.5908 114.194 86.356 112.615 86.356 111.577C86.356 109.682 86.4029 109.637 87.9997 109.637C88.9391 109.637 90.301 110.088 91.1464 110.63C91.9918 111.171 93.025 112.028 93.4007 112.525C93.7765 113.021 95.2794 115.051 96.7353 117.036C98.1442 119.067 101.009 123.037 103.076 125.879C105.142 128.721 109.04 134 111.717 137.609C112.49 138.652 113.346 139.807 114.215 140.981L114.219 140.987L114.22 140.988L114.226 140.995C116.364 143.884 118.589 146.888 119.889 148.618C121.721 151.099 123.693 153.31 124.257 153.581C125.055 153.987 125.525 153.896 126.464 153.31C127.122 152.859 127.826 151.956 127.967 151.28C128.202 150.242 127.591 149.114 124.774 145.099C122.895 142.347 120.688 139.234 119.842 138.106C118.997 136.933 117.024 134.09 115.474 131.744C113.643 128.947 112.656 127.007 112.656 126.105C112.656 125.293 113.173 124.12 114.018 123.172C115.287 121.683 115.521 121.593 118.245 121.593C120.781 121.593 121.251 121.728 122.19 122.811C122.754 123.443 126.089 128.135 129.611 133.188C134.073 139.504 136.374 142.437 137.125 142.662C137.736 142.843 138.675 142.753 139.192 142.482C139.708 142.211 140.272 141.76 140.46 141.489C140.648 141.219 140.836 140.497 140.836 139.865C140.836 139.143 138.863 135.94 135.576 131.293C130.409 124.029 130.315 123.804 130.268 121.277C130.268 119.112 130.456 118.615 131.443 117.758C132.1 117.217 133.133 116.675 133.791 116.54C134.448 116.405 135.576 116.405 136.374 116.585C137.125 116.721 138.206 117.127 138.722 117.442C139.239 117.803 141.775 121.097 144.358 124.796C146.941 128.496 149.148 131.654 149.289 131.835C149.43 132.015 150.135 132.286 150.933 132.466C152.013 132.692 152.577 132.556 153.375 131.789C153.986 131.293 154.456 130.436 154.456 129.94C154.456 129.443 152.953 126.872 151.121 124.21C148.115 119.743 147.833 119.157 148.068 117.533C148.209 116.54 148.726 115.232 149.195 114.6C149.665 113.968 150.792 113.292 151.685 113.066C152.765 112.795 153.892 112.795 155.16 113.156C156.616 113.562 157.743 114.465 160.091 117.172C161.782 119.112 164.412 122.18 166.009 124.075C167.559 125.924 169.907 128.992 171.175 130.842C172.49 132.692 174.275 135.444 175.167 136.933C176.013 138.421 177.328 140.677 178.079 141.895C178.784 143.159 180.38 146.091 181.554 148.437C182.729 150.783 184.419 154.663 185.312 157.009C186.204 159.355 187.331 162.604 187.801 164.228C187.885 164.52 187.987 164.868 188.1 165.257L188.102 165.264C188.617 167.034 189.376 169.64 189.914 171.672C190.619 174.154 191.511 177.086 191.887 178.214C192.544 180.109 192.544 180.289 191.652 180.921C191.31 181.16 189.141 182.839 186.189 185.123L186.176 185.133C184.668 186.3 182.955 187.625 181.179 188.997C175.919 193.102 170.33 197.479 168.78 198.742C167.23 200.005 165.445 201.404 164.788 201.81C163.614 202.577 163.567 202.577 159.857 200.411C157.79 199.193 154.831 197.569 153.281 196.802C151.732 196.08 147.599 194.636 144.123 193.644C140.648 192.606 135.341 190.982 132.382 189.989C129.423 188.997 124.633 187.282 121.815 186.109C118.95 184.981 113.596 182.5 109.839 180.65C106.081 178.755 101.526 176.229 99.7411 175.011C97.9094 173.838 95.5612 172.078 94.434 171.131C93.3538 170.183 92.0388 168.83 91.5221 168.063C91.0055 167.341 90.5828 166.574 90.5828 166.394C90.5828 166.168 90.9586 166.033 91.3812 166.033C91.8509 166.033 93.6825 166.529 95.5142 167.115C97.2989 167.702 101.338 169.236 104.438 170.454L105.009 170.687C108.147 171.966 112.945 173.92 116.038 175.236C119.373 176.635 122.425 177.763 122.848 177.763C123.318 177.808 124.116 177.357 124.633 176.815C125.243 176.184 125.666 174.875 125.901 173.071C126.136 171.176 126.042 169.597 125.572 168.063C125.196 166.845 123.975 164.273 122.801 162.423C121.627 160.574 119.232 157.325 117.494 155.205C115.709 153.084 113.314 150.061 112.093 148.437C110.872 146.813 107.068 141.805 103.639 137.339C100.211 132.827 96.1247 127.548 94.5749 125.608C93.025 123.623 91.663 121.954 91.5221 121.819C91.4351 121.735 91.043 121.238 90.5012 120.551C90.1664 120.126 89.7743 119.629 89.3617 119.112ZM158.682 214.803C159.058 214.081 162.956 210.698 167.371 207.269C168.412 206.462 169.671 205.487 171.063 204.41L171.077 204.399C175.522 200.956 181.305 196.477 185.593 193.147C191.229 188.771 196.536 184.756 197.335 184.169C198.18 183.628 198.979 183.177 199.166 183.177C199.401 183.177 200.012 183.357 200.575 183.583C201.186 183.808 202.924 185.433 204.474 187.192C206.023 188.997 207.432 190.847 207.62 191.343C207.855 191.794 207.855 192.741 207.62 193.418C207.385 194.185 205.037 196.306 200.481 199.825C196.724 202.712 191.981 206.412 189.961 207.991C187.942 209.615 183.809 212.863 180.803 215.209C178.845 216.738 176.488 218.592 174.589 220.085C173.574 220.884 172.689 221.58 172.068 222.067C170.236 223.466 168.075 224.819 167.277 225C165.868 225.315 165.586 225.18 163.614 223.105C162.44 221.887 160.702 219.766 159.716 218.458C158.025 216.157 158.025 216.021 158.682 214.803Z" fill="#2064E4"/>
<path d="M69.6833 47.8731C104.907 47.8731 122.989 48.0085 124.398 48.3243C125.572 48.595 127.591 49.3169 128.859 49.9034C130.175 50.535 132.053 51.7983 133.086 52.7006C134.167 53.6029 135.716 55.4076 136.609 56.6257C137.501 57.889 138.628 60.0996 139.098 61.5885C139.943 63.9796 140.037 66.055 140.272 80.3117C140.413 89.1094 140.366 96.8694 140.178 97.5913C140.037 98.268 139.568 99.1252 139.145 99.4861C138.769 99.8471 137.877 100.163 137.172 100.163C136.468 100.208 135.529 99.8471 135.106 99.3959C134.401 98.674 134.307 96.7792 134.167 81.4396C134.026 65.2429 133.979 64.1601 133.039 62.2652C132.523 61.1373 131.255 59.3327 130.221 58.2499C129.235 57.1671 127.357 55.7685 123.693 53.9187H16.143L14.1704 54.9564C13.0432 55.4978 11.1646 56.8964 9.99051 58.1145C8.72245 59.3778 7.50135 61.1824 6.93777 62.6262C6.0924 64.882 6.04543 66.5513 6.28026 165.807L7.36046 167.747C7.92404 168.785 9.1921 170.409 10.1784 171.356C11.1646 172.259 12.9963 173.522 16.6126 175.281L48.3141 175.507L49.3004 176.77C49.9579 177.582 50.1458 178.349 49.9579 179.116C49.817 179.748 49.3004 180.515 48.8777 180.831C48.2672 181.282 44.6039 181.372 31.8763 181.282L31.7738 181.281C15.9069 181.147 15.6204 181.144 12.8554 180.019C11.3055 179.432 9.0512 178.169 7.83011 177.221C6.56205 176.274 4.82433 174.56 3.93199 173.387C3.03965 172.168 1.81856 170.093 0.174776 166.258L0.0338786 116.179C-0.0600518 79.1387 0.03388 65.4685 0.409602 63.6187C0.738358 62.2652 1.53677 60.0094 2.19428 58.6559C2.85179 57.3024 4.58951 55.0466 5.99846 53.6931C7.45439 52.2945 9.89658 50.5801 11.4464 49.8583C12.9963 49.1364 14.9219 48.4145 15.6733 48.2341C16.4717 48.0536 40.7527 47.9183 69.6833 47.8731Z" fill="#2064E4"/>
<path fill-rule="evenodd" clip-rule="evenodd" d="M143.419 0.00480149C145.062 -0.0403148 146.143 0.230383 147.082 0.907127C147.927 1.49364 148.35 2.2155 148.35 3.07271C148.35 3.74945 147.974 4.65177 147.505 5.10294C146.894 5.73456 145.955 5.91503 143.09 5.86991C139.661 5.86991 139.38 5.77968 138.628 4.69689C137.877 3.65922 137.877 3.3434 138.44 2.35085C138.769 1.6741 139.521 0.907126 140.084 0.591312C140.601 0.275499 142.151 0.00480149 143.419 0.00480149ZM121.251 0.455964C123.787 0.455964 124.82 0.681545 125.478 1.26806C125.948 1.6741 126.276 2.53131 126.276 3.16294C126.276 3.79457 125.901 4.65177 125.431 5.10294C124.82 5.73456 123.928 5.91503 121.345 5.86991C118.903 5.86991 117.823 5.64433 117.212 5.05782C116.742 4.65178 116.367 3.74945 116.367 3.07271C116.367 2.39596 116.695 1.53875 117.118 1.17782C117.682 0.636428 118.809 0.455964 121.251 0.455964ZM229.365 3.47875C229.882 3.6141 230.821 4.1555 231.479 4.65177C232.136 5.19317 233.122 6.14061 233.686 6.77224C234.296 7.40387 234.766 8.39642 234.766 9.02805C234.766 9.65968 234.39 10.5169 233.921 10.9681C233.498 11.4192 232.559 11.7801 231.854 11.735C230.962 11.735 228.191 9.61456 228.191 9.61456C228.191 9.61456 225.796 7.08805 225.796 6.32108C225.843 5.68945 226.078 4.87736 226.406 4.47131C226.735 4.06526 227.346 3.6141 227.721 3.47875C228.097 3.3434 228.848 3.3434 229.365 3.47875ZM104.203 8.57689C105.001 8.57689 106.034 8.98294 106.551 9.47921C107.068 9.97549 107.49 10.6522 107.49 10.9681C107.49 11.2387 106.88 12.8629 106.081 14.5774C104.954 17.0136 104.438 17.6453 103.404 17.8708C102.653 18.0062 101.62 17.916 101.056 17.6453C100.446 17.3746 99.835 16.6978 99.6941 16.1564C99.5532 15.5248 99.835 14.1713 100.446 12.8629C100.962 11.5997 101.761 10.156 102.136 9.56945C102.575 8.90774 103.263 8.57689 104.203 8.57689ZM236.128 22.1118C236.786 22.1118 237.725 22.4727 238.195 22.9239C238.852 23.5104 239.04 24.4127 238.993 27.0746C238.993 29.6462 238.758 30.6387 238.148 31.2704C237.725 31.7215 236.926 32.0825 236.41 32.0825C235.893 32.0825 235.001 31.7215 234.39 31.2704C233.451 30.5936 233.31 30.0071 233.216 27.255C233.122 24.6383 233.31 23.8262 234.015 23.0592C234.484 22.5629 235.471 22.1118 236.128 22.1118ZM101.901 29.3304C102.653 29.3304 103.592 29.6462 103.968 30.0071C104.485 30.5034 104.625 31.5862 104.578 34.3834C104.438 37.9025 104.391 38.128 103.17 38.8048C101.995 39.3913 101.714 39.3913 100.586 38.8048C99.3184 38.128 99.2714 37.9025 99.1305 34.5187C99.0366 31.6764 99.1775 30.729 99.788 30.1425C100.258 29.6913 101.197 29.3304 101.901 29.3304ZM236.128 43.3164C236.786 43.3164 237.725 43.6773 238.195 44.1285C238.852 44.715 239.04 45.6173 238.993 48.4145C238.993 51.5276 238.899 51.9787 237.96 52.5652C237.349 52.9262 236.551 53.242 236.175 53.2871C235.799 53.2871 234.954 52.9262 234.343 52.475C233.357 51.7531 233.216 51.2569 233.169 48.4597C233.122 45.8429 233.31 45.0308 234.015 44.2638C234.484 43.7225 235.471 43.3164 236.128 43.3164ZM168.968 48.2792C169.625 48.2792 170.518 48.5048 170.893 48.7304C171.457 49.0462 171.645 50.6252 172.068 63.8443L179.629 64.0699C185.453 64.2503 187.378 64.4308 187.989 64.9722C188.411 65.3331 188.787 66.1452 188.787 66.7768C188.787 67.4085 188.411 68.3559 187.942 68.8973C187.143 69.8899 186.721 69.935 172.068 70.1606L171.833 77.6048L171.831 77.6597C171.598 84.9592 171.595 85.0503 170.424 85.5903C169.766 85.9061 168.827 86.0415 168.31 85.9061C167.794 85.7708 167.089 85.3196 166.76 84.8685C166.338 84.3722 166.197 82.2066 166.197 77.7401C166.197 74.1759 166.103 70.9727 165.962 70.6117C165.774 70.0703 164.506 69.935 158.448 69.935C151.779 69.935 151.074 69.8448 150.229 69.0327C149.712 68.5364 149.289 67.6792 149.289 67.1378C149.289 66.5513 149.571 65.6941 149.947 65.1978C150.557 64.3857 151.309 64.2955 165.962 63.8443L166.009 56.8513C166.056 50.8508 166.197 49.8131 166.901 49.0913C167.371 48.6401 168.31 48.2792 168.968 48.2792ZM236.222 64.521C236.973 64.521 237.913 64.8369 238.288 65.1978C238.805 65.6941 238.993 66.822 238.993 69.168C238.993 71.6043 238.758 72.5968 238.148 73.2285C237.678 73.6796 236.692 74.0406 235.799 73.9955C234.719 73.9955 234.156 73.7248 233.733 73.0029C233.451 72.4164 233.169 70.702 233.169 69.2131C233.122 67.0927 233.31 66.1903 234.015 65.4685C234.531 64.9271 235.471 64.521 236.222 64.521ZM237.02 85.6806C237.443 85.7708 238.101 86.0866 238.429 86.3573C238.836 86.6882 239.024 87.9815 238.993 90.2373C238.993 92.8089 238.758 93.8015 238.148 94.4331C237.678 94.8843 236.692 95.2452 235.799 95.2001C234.719 95.2001 234.156 94.9294 233.733 94.2075C233.451 93.621 233.169 91.8164 233.169 90.1922C233.122 88.3875 233.357 86.9438 233.733 86.4927C234.062 86.0866 234.766 85.7257 235.283 85.6354C235.799 85.5452 236.551 85.5903 237.02 85.6806ZM236.88 106.75C237.396 106.93 238.101 107.291 238.429 107.562C238.852 107.878 239.04 109.186 238.993 111.442C238.993 114.014 238.758 115.006 238.148 115.638C237.678 116.089 236.692 116.45 235.799 116.405C234.766 116.405 234.156 116.134 233.827 115.502C233.592 115.006 233.263 113.653 233.122 112.48C232.981 111.261 233.028 109.728 233.263 108.961C233.451 108.239 234.156 107.336 234.813 107.066C235.424 106.75 236.363 106.615 236.88 106.75ZM228.379 125.563C229.224 125.608 230.117 126.105 230.633 126.781C231.432 127.774 231.432 128.045 230.915 129.173C230.586 129.849 229.365 130.887 228.191 131.519C227.017 132.105 225.326 132.647 224.434 132.647C223.541 132.647 222.508 132.421 222.179 132.105C221.851 131.789 221.616 130.842 221.616 130.075C221.616 129.263 221.898 128.361 222.179 128.135C222.508 127.864 223.729 127.188 224.903 126.556C226.078 125.969 227.627 125.518 228.379 125.563ZM204.755 128.135C208.09 128.135 208.559 128.225 209.17 129.173C209.546 129.714 209.875 130.526 209.875 130.977C209.875 131.383 209.358 132.241 208.7 132.872C207.761 133.82 207.104 134 204.849 134C202.83 134.045 201.796 133.774 200.81 133.098C200.059 132.556 199.495 131.699 199.448 130.977C199.401 130.346 199.777 129.398 200.247 128.947C200.904 128.315 201.843 128.135 204.755 128.135ZM64.5641 175.597C72.6421 175.733 73.3466 175.778 73.9571 176.635C74.3329 177.131 74.6147 177.988 74.6147 178.575C74.6147 179.116 74.192 179.974 73.6754 180.47C72.783 181.327 72.1255 181.372 64.1414 181.372C56.6739 181.372 55.4998 181.237 54.7484 180.56C54.2787 180.154 53.903 179.252 53.95 178.575C53.95 177.853 54.3727 176.906 54.9362 176.364C55.8286 175.507 56.3452 175.462 64.5641 175.597ZM199.354 185.884C200.153 185.884 201.139 186.651 202.83 188.591C204.427 190.441 205.178 191.704 205.178 192.561C205.131 193.554 204.38 194.366 201.327 196.712C200.57 197.307 199.579 198.078 198.505 198.913C196.649 200.358 194.544 201.996 192.967 203.254C190.431 205.239 185.124 209.344 181.179 212.367C177.187 215.39 172.584 218.999 170.893 220.353C169.203 221.706 167.465 222.969 166.995 223.105C166.479 223.24 165.633 222.744 164.412 221.48C163.473 220.443 162.205 218.999 161.594 218.187C160.937 217.33 160.608 216.427 160.749 215.886C160.89 215.39 164.741 212.006 169.344 208.352C173.946 204.697 179.911 200.05 182.588 197.975C185.265 195.9 189.867 192.335 192.826 190.08C196.302 187.373 198.603 185.884 199.354 185.884Z" fill="#2064E4"/>
<path d="M212.411 0.455964C212.88 0.591313 213.538 0.952244 213.82 1.31317C214.101 1.6741 214.289 2.57643 214.195 3.3434C214.148 4.11038 213.726 5.01271 213.256 5.32852C212.786 5.64433 209.076 5.86991 209.076 5.86991C209.076 5.86991 205.554 5.73456 204.943 4.87736C204.567 4.29084 204.239 3.43364 204.239 2.93736C204.192 2.44108 204.567 1.6741 205.037 1.26806C205.601 0.771777 206.869 0.455964 208.7 0.365731C210.25 0.275499 211.894 0.320615 212.411 0.455964Z" fill="#2064E4"/>
<path d="M165.164 0.455964C165.164 0.455964 168.968 0.681545 169.625 1.26806C170.095 1.6741 170.424 2.53131 170.424 3.16294C170.424 3.79457 170.048 4.65177 169.578 5.10294C168.968 5.73456 168.028 5.91503 165.117 5.86991C161.876 5.86991 161.406 5.77968 160.796 4.87736C160.42 4.29084 160.044 3.52387 160.044 3.16294C159.997 2.75689 160.326 1.98992 160.796 1.44852C161.453 0.591313 165.164 0.455964 165.164 0.455964Z" fill="#2064E4"/>
<path d="M187.566 0.00480149C189.21 -0.0403148 190.29 0.230383 191.229 0.907127C191.934 1.40341 192.497 2.26061 192.497 2.84713C192.497 3.38852 192.169 4.29084 191.793 4.87736C191.182 5.77968 187.331 5.86991 187.331 5.86991C187.331 5.86991 183.527 5.77968 182.729 4.69689C182.024 3.65922 182.024 3.3434 182.588 2.35085C182.916 1.6741 183.668 0.907126 184.231 0.591312C184.748 0.275499 186.298 0.00480149 187.566 0.00480149Z" fill="#2064E4"/>
<path d="M22.4833 58.6559C23.1408 58.6559 23.8922 58.8815 24.174 59.1973C24.4558 59.5131 25.3012 62.1299 26.0056 64.9722C26.7101 67.8145 28.3069 73.0029 29.528 76.4768C30.7491 79.9508 32.6277 84.8234 33.7079 87.3047C34.8351 89.7861 36.8077 93.8466 38.0757 96.328C39.3907 98.8094 41.9269 103.186 43.7585 106.028C45.6371 108.87 48.6899 113.337 50.6624 115.954C52.588 118.57 56.0164 122.721 58.2238 125.202C60.4781 127.684 64.705 131.97 67.6638 134.677C70.5756 137.429 73.7223 140.271 74.6147 141.038C75.507 141.805 78.7006 144.151 81.6594 146.272C84.6182 148.347 88.8451 151.189 91.0525 152.498C93.2598 153.806 95.1854 155.024 95.3733 155.16C95.5612 155.295 93.4477 155.43 90.6768 155.43C86.1681 155.43 85.4167 155.566 83.3032 156.648C81.9882 157.28 80.2974 158.498 79.4521 159.355C78.6537 160.168 77.5265 161.656 77.0099 162.649C76.4463 163.641 75.8827 165.807 75.3191 170.544H48.8777C29.2932 170.544 21.9197 170.409 20.2759 170.003C18.9139 169.642 17.2701 168.694 15.9081 167.567C14.5461 166.348 13.5129 164.95 12.9493 163.506C12.1979 161.431 12.1509 158.227 12.3857 66.5513L13.419 64.6564C14.0295 63.5736 15.3445 62.0396 16.3778 61.2727C17.364 60.4606 18.9139 59.5583 19.7593 59.2424C20.6046 58.9717 21.8257 58.701 22.4833 58.6559Z" fill="#98B9F6"/>
</g>
</svg>
